HIERARCHY
ROOT Hips
{
     OFFSET 15.48990 96.42170 -12.42430
     CHANNELS 6 Xposition Yposition Zposition Zrotation Xrotation Yrotation
     JOINT Spine
     {
          OFFSET -0.00000 11.89050 0.00000
          CHANNELS 3 Zrotation Xrotation Yrotation
          JOINT Spine1
          {
               OFFSET 0.00000 25.65740 0.12766
               CHANNELS 3 Zrotation Xrotation Yrotation
               JOINT HEad
               {
                    OFFSET 0.00000 8.73416 0.01134
                    CHANNELS 3 Zrotation Xrotation Yrotation
                    End Site
                    {
                         OFFSET -0.29000 12.77420 2.51395
                    }
               }
               JOINT LeftShoulder1
               {
                    OFFSET 8.99000 -0.36225 -0.22000
                    CHANNELS 3 Zrotation Xrotation Yrotation
                    JOINT LeftArm
                    {
                         OFFSET 10.28270 -0.00338 0.32212
                         CHANNELS 3 Zrotation Xrotation Yrotation
                         JOINT LeftForeArm
                         {
                              OFFSET 32.76690 0.09914 -1.42434
                              CHANNELS 3 Zrotation Xrotation Yrotation
                              JOINT LeftHand
                              {
                                   OFFSET 27.56430 0.08536 1.02216
                                   CHANNELS 3 Zrotation Xrotation Yrotation
                                   End Site
                                   {
                                        OFFSET 16.74430 -0.60000 1.50291
                                   }
                              }
                         }
                    }
               }
               JOINT RightShoulder
               {
                    OFFSET -8.99000 -0.36225 -0.22000
                    CHANNELS 3 Zrotation Xrotation Yrotation
                    JOINT RightArm
                    {
                         OFFSET -10.28270 -0.00338 0.32212
                         CHANNELS 3 Zrotation Xrotation Yrotation
                         JOINT RightForeArm
                         {
                              OFFSET -32.89710 0.09914 -1.42434
                              CHANNELS 3 Zrotation Xrotation Yrotation
                              JOINT RightHand
                              {
                                   OFFSET -27.49210 0.08536 1.02216
                                   CHANNELS 3 Zrotation Xrotation Yrotation
                                   End Site
                                   {
                                        OFFSET -16.63120 -0.60000 1.50291
                                   }
                              }
                         }
                    }
               }
          }
     }
     JOINT LeftUpLeg
     {
          OFFSET 8.94580 -8.66707 0.10165
          CHANNELS 3 Zrotation Xrotation Yrotation
          JOINT LeftLeg
          {
               OFFSET -0.00000 -44.42270 1.37270
               CHANNELS 3 Zrotation Xrotation Yrotation
               JOINT LeftFoot
               {
                    OFFSET -0.25355 -42.09240 -1.46059
                    CHANNELS 3 Zrotation Xrotation Yrotation
                    JOINT LeftToes
                    {
                         OFFSET -0.04000 -4.41509 8.49910
                         CHANNELS 3 Zrotation Xrotation Yrotation
                         End Site
                         {
                              OFFSET 0.08000 -0.04745 9.77979
                         }
                    }
               }
          }
     }
     JOINT RightUpLeg
     {
          OFFSET -8.94580 -8.66707 0.10165
          CHANNELS 3 Zrotation Xrotation Yrotation
          JOINT RightLeg
          {
               OFFSET -0.00000 -44.42270 1.37270
               CHANNELS 3 Zrotation Xrotation Yrotation
               JOINT RightFoot
               {
                    OFFSET 0.25355 -42.09240 -1.46059
                    CHANNELS 3 Zrotation Xrotation Yrotation
                    JOINT RightToes
                    {
                         OFFSET 0.04000 -4.41509 8.49910
                         CHANNELS 3 Zrotation Xrotation Yrotation
                         End Site
                         {
                              OFFSET -0.08000 -0.13745 9.77979
                         }
                    }
               }
          }
     }
}
MOTION
Frames: 6
Frame Time: 0.01667
15.48990 96.42170 -12.42430 -6.38427 -9.09261 -31.60590 -3.82701 9.57484 -1.06518 -0.68338 18.92830 -3.21429 1.17759 -10.28140 15.33540 -0.00000 -0.00000 0.00000 -125.02400 -63.27550 -107.61600 -28.58800 48.81790 -77.32370 17.10850 7.76258 -10.60200 16.86460 0.99571 2.64169 87.56030 -1.94540 76.82980 14.02820 32.23070 96.40380 18.76400 12.38750 10.35250 17.14090 -3.12165 -12.46110 -19.65450 10.36890 59.19470 -2.90517 8.35988 0.33900 5.22867 -21.09450 -53.31310 -21.60920 9.85269 12.58730 34.21820 -1.33212 -29.33130 -38.50880 9.13005 5.79033 12.30990 -49.53030 22.61670 
15.44690 96.41550 -12.73060 -6.22979 -9.10109 -31.21300 -3.83676 9.62768 -1.02310 -0.65281 19.02510 -3.12144 0.75132 -10.21540 15.22680 -0.00000 -0.00000 0.00000 -124.27300 -63.13380 -106.79000 -28.57610 48.55790 -77.27140 17.11700 7.76400 -10.58440 16.66940 1.00338 2.72265 87.93510 -1.90567 76.96360 13.98510 32.27310 96.47800 18.76280 12.38230 10.32350 17.10070 -3.59459 -12.90140 -19.67410 10.46270 59.15970 -3.08963 8.49846 0.36758 5.45196 -20.26900 -53.35820 -21.62330 9.82795 12.11010 34.37740 -1.35482 -29.46190 -38.65980 9.07432 5.79538 12.13760 -49.55020 22.12310 
15.39010 96.41930 -13.08000 -5.98807 -9.14637 -30.58830 -3.84904 9.68386 -0.97961 -0.66990 19.12860 -3.01280 0.40911 -10.19320 15.10630 -0.00000 -0.00000 0.00000 -123.31200 -62.78790 -105.79000 -28.48950 48.12230 -77.29970 16.68840 7.84939 -10.38090 16.48970 1.01628 2.82928 88.27090 -1.92276 77.13170 14.12020 32.31560 96.47540 18.81640 12.37160 10.22020 17.00520 -4.15045 -13.52230 -19.73450 10.49840 59.04280 -3.51228 8.60942 0.42971 5.80247 -18.96490 -53.39130 -21.68860 9.83198 11.65570 34.53830 -1.43636 -29.78690 -38.81470 9.03778 5.80777 11.96990 -49.60350 21.60820 
15.30850 96.43020 -13.46840 -5.67280 -9.23185 -29.72360 -3.86347 9.74673 -0.93913 -0.74595 19.24580 -2.89639 0.20908 -10.20900 15.01690 -0.00000 -0.00000 0.00000 -122.15400 -62.22360 -104.65800 -28.27450 47.52960 -77.46600 15.86070 8.01653 -9.93633 16.40570 1.03579 2.95100 88.50850 -1.98634 77.31670 14.39050 32.35990 96.39860 18.87210 12.35090 10.05810 16.86980 -4.73259 -14.15110 -19.77860 10.45150 58.77030 -4.07750 8.85426 0.51690 6.16866 -17.59910 -53.45700 -21.79100 9.86301 11.29840 34.71550 -1.56101 -30.32480 -38.91270 8.91659 5.78059 11.78100 -49.55280 21.13860 
15.19120 96.44590 -13.88950 -5.30818 -9.34897 -28.63390 -3.87677 9.81390 -0.89718 -0.87614 19.37250 -2.76516 0.15688 -10.22300 14.96650 -0.00000 -0.00000 0.00000 -120.95400 -61.46830 -103.53800 -27.97350 46.95910 -77.70900 14.89420 8.21421 -9.32698 16.45850 1.05784 3.05532 88.62030 -2.08795 77.49270 14.67990 32.40060 96.29940 18.90120 12.31930 9.85228 16.73010 -5.27656 -14.59330 -19.76140 10.30330 58.19040 -4.66608 9.32271 0.61761 6.43692 -16.58120 -53.43760 -21.89780 9.91763 11.07440 34.91110 -1.70652 -31.05430 -38.91150 8.62759 5.67737 11.54290 -49.28820 20.74030 
15.02920 96.46160 -14.33330 -4.91169 -9.48241 -27.34420 -3.88469 9.87712 -0.84566 -1.02769 19.49190 -2.61093 0.18033 -10.19830 14.91890 -0.00000 -0.00000 0.00000 -119.65500 -60.56280 -102.36400 -27.56480 46.52150 -77.98570 14.17120 8.37032 -8.74090 16.59290 1.07261 3.10184 88.63960 -2.22382 77.63520 14.86950 32.43420 96.23460 18.91460 12.28400 9.63714 16.63100 -5.75368 -14.75790 -19.70180 10.06560 57.15310 -5.27512 9.91999 0.73134 6.56275 -16.03190 -53.12290 -21.98990 9.99442 10.98520 35.13720 -1.86981 -31.94690 -38.82700 8.13924 5.49017 11.22590 -48.76030 20.36910 
